mtllib letrero copia.mtl
v -9.409866 242.297195 16.433609
v -66.476929 184.968216 170.165619
v 64.573639 72.487946 23.855286
v 32.672989 40.440773 109.791992
v 51.550079 73.733612 -26.121643
v 38.291168 60.413853 9.596313
v 77.832550 85.807709 -11.862671
v 6.390518 28.366676 95.533020
v -35.692261 230.222900 2.174652
v -92.759399 172.894104 155.906647
v 92.933754 -83.768761 30.967651
v 119.216156 -71.694496 45.226624
v 19.414078 27.121017 145.509949
v -6.868393 15.046913 131.250977
v 119.210655 -71.700035 45.241455
v 92.928185 -83.774132 30.982468
v 202.542343 133.209045 -226.391602
v -23.380035 97.292313 231.713165
v -9.690201 63.155140 235.386139
v 212.542038 108.273689 -223.708694
v 190.536621 98.164459 -235.647247
v -39.816071 49.315392 219.042023
v 180.536926 123.099815 -238.330154
v -53.505920 83.452568 215.369049
vt 0.045162 0.824259
vt 0.281380 0.962706
vt 0.228465 0.596367
vt 0.366447 0.673648
vt 0.966151 0.725539
vt 0.962034 0.662095
vt 0.911333 0.665495
vt 0.911333 0.665495
vt 0.915498 0.728922
vt 0.572476 0.703097
vt 0.416546 0.689654
vt 0.609414 1.000000
vt 0.330721 0.976642
vt 0.000000 0.831603
vt 0.231670 0.989664
vt 0.281380 0.962706
vt 0.281380 0.962706
vt 0.045162 0.824259
vt 0.000000 0.831603
vt 0.000000 0.831603
vt 0.045162 0.824259
vt 0.228465 0.596367
vt 0.228465 0.596367
vt 0.172693 0.588718
vt 0.000000 0.831603
vt 0.281380 0.962706
vt 0.330721 0.976642
vt 0.416546 0.689654
vt 0.416546 0.689654
vt 0.366447 0.673648
vt 0.281380 0.962706
vt 0.984261 0.996617
vt 0.966151 0.725539
vt 0.933605 1.000000
vt 0.915498 0.728922
vt 0.966151 0.725539
vt 0.214216 0.285226
vt 0.151322 0.288570
vt 0.153466 0.339923
vt 0.153466 0.339923
vt 0.217151 0.335914
vt 0.672900 0.999999
vt 0.670827 1.000000
vt 0.677888 1.000000
vt 0.151322 0.288570
vt 0.214216 0.285226
vt 0.000000 0.296612
vt 0.680333 0.999999
vt 0.678260 1.000000
vt 0.685321 1.000000
vt 0.572476 0.703097
vt 0.637286 0.708682
vt 0.416546 0.689654
vt 0.485427 0.269484
vt 0.485400 0.269486
vt 0.488369 0.320162
vt 0.488343 0.320163
vt 0.488369 0.320162
vt 0.485400 0.269486
vt 0.214216 0.285226
vt 0.217151 0.335914
vt 0.217151 0.335914
vt 0.488343 0.320163
vt 0.485400 0.269486
vt 0.488343 0.320163
vt 0.217151 0.335914
vt 0.375042 0.567071
vt 0.966151 0.725539
vt 0.984261 0.996617
vt 0.984285 0.996628
vt 0.933605 1.000000
vt 0.915498 0.728922
vt 0.685692 0.888834
vt 0.214216 0.285226
vt 0.485400 0.269486
vt 0.485413 0.269462
vt 0.864252 0.066977
vt 0.058176 0.079410
vt 0.059640 0.137587
vt 0.865321 0.109472
vt 0.865321 0.109472
vt 0.059640 0.137587
vt 0.867217 0.151938
vt 0.062235 0.195723
vt 0.059640 0.137587
vt 0.867217 0.151938
vt 0.062235 0.195723
vt 0.869938 0.194359
vt 0.065961 0.253799
vt 0.062235 0.195723
vt 0.864010 0.024470
vt 0.057845 0.021217
vt 0.058176 0.079410
vt 0.058176 0.079410
vt 0.864252 0.066977
vt 0.864010 0.024470
vt 0.869938 0.194359
vt 0.912359 0.191637
vt 0.909638 0.149216
vt 0.909638 0.149216
vt 0.867217 0.151938
vt 0.869938 0.194359
vt 0.058176 0.079410
vt 0.000000 0.080874
vt 0.001464 0.139050
vt 0.001464 0.139050
vt 0.059640 0.137587
vt 0.058176 0.079410
vn 0.815031 0.374423 0.442177
vn 0.815031 0.374423 0.442177
vn 0.815031 0.374423 0.442177
vn 0.815031 0.374423 0.442177
vn -0.477289 0.866527 0.145999
vn -0.477289 0.866527 0.145999
vn -0.477289 0.866527 0.145999
vn -0.477289 0.866527 0.145999
vn -0.477289 0.866527 0.145999
vn -0.815031 -0.374423 -0.442177
vn -0.815031 -0.374423 -0.442177
vn -0.815031 -0.374423 -0.442177
vn -0.815031 -0.374423 -0.442177
vn -0.477289 0.866527 0.145999
vn -0.477289 0.866527 0.145999
vn -0.477289 0.866527 0.145999
vn -0.477289 0.866527 0.145999
vn -0.477289 0.866527 0.145999
vn -0.477289 0.866527 0.145999
vn 0.420045 0.143828 -0.896027
vn 0.420045 0.143828 -0.896027
vn 0.420045 0.143828 -0.896027
vn 0.420045 0.143828 -0.896027
vn 0.420045 0.143828 -0.896027
vn 0.420045 0.143828 -0.896027
vn -0.222805 -0.501937 0.835707
vn -0.222805 -0.501937 0.835707
vn -0.222805 -0.501937 0.835707
vn -0.222805 -0.501937 0.835707
vn -0.222805 -0.501937 0.835707
vn -0.222805 -0.501937 0.835707
vn 0.527452 -0.163604 -0.833677
vn 0.527452 -0.163604 -0.833677
vn 0.527452 -0.163604 -0.833677
vn 0.527452 -0.163604 -0.833677
vn 0.527452 -0.163604 -0.833677
vn -0.477289 0.866527 0.145999
vn -0.477289 0.866527 0.145999
vn -0.477289 0.866527 0.145999
vn -0.477289 0.866527 0.145999
vn -0.477289 0.866527 0.145999
vn 0.445581 0.082779 -0.891401
vn 0.445581 0.082779 -0.891401
vn 0.445581 0.082779 -0.891401
vn 0.445581 0.082779 -0.891401
vn 0.445581 0.082779 -0.891401
vn 0.445581 0.082779 -0.891401
vn -0.370366 0.923550 -0.099369
vn -0.370366 0.923550 -0.099369
vn -0.370366 0.923550 -0.099369
vn -0.370366 0.923550 -0.099369
vn -0.370366 0.923550 -0.099369
vn -0.370366 0.923550 -0.099369
vn 0.477257 -0.866558 -0.145914
vn 0.477257 -0.866558 -0.145914
vn 0.477257 -0.866558 -0.145914
vn 0.477257 -0.866558 -0.145914
vn 0.477257 -0.866558 -0.145914
vn -0.035658 -0.729290 0.683268
vn -0.035658 -0.729290 0.683268
vn -0.035658 -0.729290 0.683268
vn -0.035658 -0.729290 0.683268
vn -0.035658 -0.729290 0.683268
vn -0.035658 -0.729290 0.683268
vn -0.815031 -0.374423 -0.442177
vn -0.815031 -0.374423 -0.442177
vn -0.815031 -0.374423 -0.442177
vn -0.815031 -0.374423 -0.442177
vn -0.815031 -0.374423 -0.442177
vn -0.815031 -0.374423 -0.442177
vn 0.815031 0.374423 0.442177
vn 0.815031 0.374423 0.442177
vn 0.815031 0.374423 0.442177
vn 0.815031 0.374423 0.442177
vn 0.815031 0.374423 0.442177
vn 0.815031 0.374423 0.442177
vn 0.819315 0.375209 0.433510
vn 0.819315 0.375209 0.433510
vn 0.819315 0.375209 0.433510
vn 0.819315 0.375209 0.433510
vn 0.374671 -0.922703 0.090718
vn 0.374671 -0.922703 0.090718
vn 0.374671 -0.922703 0.090718
vn 0.374671 -0.922703 0.090718
vn 0.374671 -0.922703 0.090718
vn -0.810671 -0.373603 -0.450802
vn -0.810671 -0.373603 -0.450802
vn -0.810671 -0.373603 -0.450802
vn -0.810671 -0.373603 -0.450802
vn -0.810671 -0.373603 -0.450802
vn -0.366027 0.924309 -0.108010
vn -0.366027 0.924309 -0.108010
vn -0.366027 0.924309 -0.108010
vn -0.366027 0.924309 -0.108010
vn -0.366027 0.924309 -0.108010
vn -0.366027 0.924309 -0.108010
vn 0.445581 0.082779 -0.891401
vn 0.445581 0.082779 -0.891401
vn 0.445581 0.082779 -0.891401
vn 0.445581 0.082779 -0.891401
vn 0.445581 0.082779 -0.891401
vn 0.445581 0.082779 -0.891401
vn -0.445581 -0.082779 0.891401
vn -0.445581 -0.082779 0.891401
vn -0.445581 -0.082779 0.891401
vn -0.445581 -0.082779 0.891401
vn -0.445581 -0.082779 0.891401
vn -0.445581 -0.082779 0.891401
usemtl None
f 1/1/1 2/2/2 3/3/3
f 4/4/4 3/3/3 2/2/2
f 5/5/5 6/6/6 3/7/7
f 3/8/8 7/9/9 5/5/5
f 6/10/10 8/11/11 9/12/12
f 10/13/13 9/12/12 8/11/11
f 9/14/14 10/15/15 2/16/16
f 2/17/17 1/18/18 9/19/19
f 9/20/20 1/21/21 3/22/22
f 3/23/23 6/24/24 9/25/25
f 2/26/26 10/27/27 8/28/28
f 8/29/29 4/30/30 2/31/31
f 11/32/32 5/33/33 12/34/34
f 7/35/35 12/34/34 5/36/36
f 13/37/37 4/38/38 8/39/39
f 8/40/40 14/41/41 13/37/37
f 3/42/42 7/43/43 4/44/44
f 4/45/45 13/46/46 3/47/47
f 8/48/48 14/49/49 6/50/50
f 6/51/51 5/52/52 8/53/53
f 12/54/54 15/55/55 11/56/56
f 16/57/57 11/58/58 15/55/55
f 15/59/59 13/60/60 14/61/61
f 14/62/62 16/63/63 15/64/64
f 16/65/65 14/66/66 5/67/67
f 5/68/68 11/69/69 16/70/70
f 12/71/71 7/72/72 13/73/73
f 13/74/74 15/75/75 12/76/76
f 17/77/77 18/78/78 19/79/79
f 19/79/79 20/80/80 17/77/77
f 20/81/81 19/82/82 21/83/83
f 22/84/84 21/83/83 19/85/85
f 21/86/86 22/87/87 23/88/88
f 24/89/89 23/88/88 22/90/90
f 23/91/91 24/92/92 18/93/93
f 18/94/94 17/95/95 23/96/96
f 23/97/97 17/98/98 20/99/99
f 20/100/100 21/101/101 23/102/102
f 18/103/103 24/104/104 22/105/105
f 22/106/106 19/107/107 18/108/108
