mtllib roca2 copia.mtl
v 209.018845 50.074112 9.410294
v 366.426666 52.336540 -58.041336
v 435.177917 46.990227 76.678970
v 487.109802 115.432266 -108.156845
v 250.712524 135.473389 -170.592789
v 198.494232 88.408226 116.494339
v -16.533798 119.349594 6.379745
v 87.255920 97.056694 -101.488266
v 411.403656 219.928253 -174.536911
v 604.076782 106.337433 121.044197
v 598.636719 85.407089 7.574921
v 695.186340 183.639496 70.299973
v 201.403748 176.801056 188.782196
v 430.702332 121.478561 182.111938
v 354.708893 247.350510 217.984344
v -164.426743 229.443436 1.443115
v -21.010452 193.838089 111.812531
v -139.495010 323.013977 64.421936
v 12.152649 191.515305 -182.073715
v -132.249985 202.487289 -106.171890
v -104.455765 306.066101 -178.169144
v 626.435791 188.985138 -64.421585
v 591.396545 205.932999 178.169510
v 75.537079 292.070831 174.537247
v -208.245102 328.359497 -70.299759
v 132.231842 264.648560 -217.984024
v 651.367676 282.556091 -1.443588
v 507.951721 318.160919 -111.812332
v 503.475098 392.649414 -6.379532
v 474.788757 320.484192 182.073898
v 619.191467 309.512207 106.171906
v 399.684937 414.942810 101.488167
v -0.168427 396.567200 108.157013
v 236.228333 376.525635 170.592361
v 120.514206 459.662964 58.041229
v -117.135818 405.662109 -121.044662
v -111.695267 426.592407 -7.574921
v 51.763351 465.008789 -76.678757
v 285.537048 335.197937 -188.782242
v 56.238937 390.520447 -182.111710
v 288.446716 423.591370 -116.494797
v 277.922028 461.925476 -9.410187
vt 0.877622 0.439184
vt 0.860047 0.543713
vt 0.950000 0.565568
vt 0.820583 0.627369
vt 0.860047 0.543713
vt 0.765274 0.488647
vt 0.200839 0.743381
vt 0.310645 0.850240
vt 0.262171 0.710618
vt 0.200839 0.743381
vt 0.262171 0.710618
vt 0.163746 0.602903
vt 0.200839 0.743381
vt 0.163746 0.602903
vt 0.110053 0.677592
vt 0.820583 0.627369
vt 0.765274 0.488647
vt 0.734304 0.597914
vt 0.652435 0.918544
vt 0.700020 0.862130
vt 0.600457 0.857175
vt 0.317381 0.673990
vt 0.381941 0.806512
vt 0.404698 0.715783
vt 0.150173 0.487788
vt 0.228963 0.565148
vt 0.224870 0.453665
vt 0.041176 0.613826
vt 0.089652 0.528492
vt 0.016019 0.509562
vt 0.765099 0.774352
vt 0.765981 0.678796
vt 0.672809 0.790835
vt 0.524956 0.900475
vt 0.600457 0.857175
vt 0.496765 0.834067
vt 0.317381 0.673990
vt 0.404698 0.715783
vt 0.316921 0.567975
vt 0.381571 0.234069
vt 0.383404 0.305349
vt 0.461793 0.248446
vt 0.701692 0.348798
vt 0.604883 0.295936
vt 0.673986 0.431039
vt 0.616507 0.778601
vt 0.669015 0.676511
vt 0.588018 0.681391
vt 0.482226 0.732942
vt 0.556045 0.781347
vt 0.505084 0.651135
vt 0.333068 0.479528
vt 0.414227 0.602599
vt 0.436555 0.490804
vt 0.522501 0.310045
vt 0.452314 0.337715
vt 0.510151 0.423453
vt 0.653927 0.530038
vt 0.586286 0.403448
vt 0.589793 0.544425
vt 0.589793 0.544425
vt 0.510151 0.423453
vt 0.523114 0.556976
vt 0.589793 0.544425
vt 0.586286 0.403448
vt 0.510151 0.423453
vt 0.586286 0.403448
vt 0.522501 0.310045
vt 0.510151 0.423453
vt 0.510151 0.423453
vt 0.436555 0.490804
vt 0.523114 0.556976
vt 0.510151 0.423453
vt 0.452314 0.337715
vt 0.436555 0.490804
vt 0.452314 0.337715
vt 0.385295 0.413858
vt 0.436555 0.490804
vt 0.436555 0.490804
vt 0.505084 0.651135
vt 0.523114 0.556976
vt 0.436555 0.490804
vt 0.414227 0.602599
vt 0.505084 0.651135
vt 0.414227 0.602599
vt 0.482226 0.732942
vt 0.505084 0.651135
vt 0.505084 0.651135
vt 0.588018 0.681391
vt 0.523114 0.556976
vt 0.505084 0.651135
vt 0.556045 0.781347
vt 0.588018 0.681391
vt 0.556045 0.781347
vt 0.616507 0.778601
vt 0.588018 0.681391
vt 0.588018 0.681391
vt 0.589793 0.544425
vt 0.523114 0.556976
vt 0.588018 0.681391
vt 0.669015 0.676511
vt 0.589793 0.544425
vt 0.669015 0.676511
vt 0.653927 0.530038
vt 0.589793 0.544425
vt 0.673986 0.431039
vt 0.586286 0.403448
vt 0.653927 0.530038
vt 0.673986 0.431039
vt 0.604883 0.295936
vt 0.586286 0.403448
vt 0.604883 0.295936
vt 0.522501 0.310045
vt 0.586286 0.403448
vt 0.461793 0.248446
vt 0.452314 0.337715
vt 0.522501 0.310045
vt 0.461793 0.248446
vt 0.383404 0.305349
vt 0.452314 0.337715
vt 0.383404 0.305349
vt 0.385295 0.413858
vt 0.452314 0.337715
vt 0.316921 0.567975
vt 0.414227 0.602599
vt 0.333068 0.479528
vt 0.316921 0.567975
vt 0.404698 0.715783
vt 0.414227 0.602599
vt 0.404698 0.715783
vt 0.482226 0.732942
vt 0.414227 0.602599
vt 0.496765 0.834067
vt 0.556045 0.781347
vt 0.482226 0.732942
vt 0.496765 0.834067
vt 0.600457 0.857175
vt 0.556045 0.781347
vt 0.600457 0.857175
vt 0.616507 0.778601
vt 0.556045 0.781347
vt 0.672809 0.790835
vt 0.669015 0.676511
vt 0.616507 0.778601
vt 0.672809 0.790835
vt 0.765981 0.678796
vt 0.669015 0.676511
vt 0.734304 0.597914
vt 0.653927 0.530038
vt 0.669015 0.676511
vt 0.016019 0.509562
vt 0.080920 0.438939
vt 0.000000 0.440149
vt 0.016019 0.509562
vt 0.089652 0.528492
vt 0.080920 0.438939
vt 0.089652 0.528492
vt 0.150173 0.487788
vt 0.080920 0.438939
vt 0.224870 0.453665
vt 0.316921 0.567975
vt 0.333068 0.479528
vt 0.224870 0.453665
vt 0.228963 0.565148
vt 0.316921 0.567975
vt 0.228963 0.565148
vt 0.317381 0.673990
vt 0.316921 0.567975
vt 0.404698 0.715783
vt 0.496765 0.834067
vt 0.482226 0.732942
vt 0.404698 0.715783
vt 0.381941 0.806512
vt 0.496765 0.834067
vt 0.381941 0.806512
vt 0.455805 0.894442
vt 0.496765 0.834067
vt 0.600457 0.857175
vt 0.672809 0.790835
vt 0.616507 0.778601
vt 0.600457 0.857175
vt 0.700020 0.862130
vt 0.672809 0.790835
vt 0.700020 0.862130
vt 0.765099 0.774352
vt 0.672809 0.790835
vt 0.734304 0.597914
vt 0.673986 0.431039
vt 0.653927 0.530038
vt 0.734304 0.597914
vt 0.765274 0.488647
vt 0.673986 0.431039
vt 0.765274 0.488647
vt 0.701692 0.348798
vt 0.673986 0.431039
vt 0.110053 0.677592
vt 0.089652 0.528492
vt 0.041176 0.613826
vt 0.110053 0.677592
vt 0.163746 0.602903
vt 0.089652 0.528492
vt 0.163746 0.602903
vt 0.150173 0.487788
vt 0.089652 0.528492
vt 0.163746 0.602903
vt 0.228963 0.565148
vt 0.150173 0.487788
vt 0.163746 0.602903
vt 0.262171 0.710618
vt 0.228963 0.565148
vt 0.262171 0.710618
vt 0.317381 0.673990
vt 0.228963 0.565148
vt 0.262171 0.710618
vt 0.381941 0.806512
vt 0.317381 0.673990
vt 0.262171 0.710618
vt 0.310645 0.850240
vt 0.381941 0.806512
vt 0.343251 0.874078
vt 0.455805 0.894442
vt 0.381941 0.806512
vt 0.765274 0.488647
vt 0.789463 0.379984
vt 0.701692 0.348798
vt 0.765274 0.488647
vt 0.860047 0.543713
vt 0.789463 0.379984
vt 0.860047 0.543713
vt 0.877622 0.439184
vt 0.789463 0.379984
vt 0.343251 0.874078
vt 0.419298 0.955555
vt 0.455805 0.894442
vt 0.343251 0.874078
vt 0.271610 0.932495
vt 0.419298 0.955555
vt 0.271610 0.932495
vt 0.329423 1.000000
vt 0.419298 0.955555
vn -0.001731 -0.815796 -0.031479
vn -0.001731 -0.815796 -0.031479
vn -0.001731 -0.815796 -0.031479
vn 0.091524 -0.604723 -0.540786
vn 0.091524 -0.604723 -0.540786
vn 0.091524 -0.604723 -0.540786
vn -0.089477 -0.766753 0.265708
vn -0.089477 -0.766753 0.265708
vn -0.089477 -0.766753 0.265708
vn -0.231779 -0.743958 0.243562
vn -0.231779 -0.743958 0.243562
vn -0.231779 -0.743958 0.243562
vn -0.238047 -0.777941 -0.068256
vn -0.238047 -0.777941 -0.068256
vn -0.238047 -0.777941 -0.068256
vn 0.161999 -0.342134 -0.723338
vn 0.161999 -0.342134 -0.723338
vn 0.161999 -0.342134 -0.723338
vn 0.551917 -0.595778 0.083388
vn 0.551917 -0.595778 0.083388
vn 0.551917 -0.595778 0.083388
vn -0.036115 -0.243666 0.778357
vn -0.036115 -0.243666 0.778357
vn -0.036115 -0.243666 0.778357
vn -0.511737 -0.255680 0.582468
vn -0.511737 -0.255680 0.582468
vn -0.511737 -0.255680 0.582468
vn -0.364065 -0.348689 -0.642176
vn -0.364065 -0.348689 -0.642176
vn -0.364065 -0.348689 -0.642176
vn 0.335285 -0.210611 -0.713963
vn 0.335285 -0.210611 -0.713963
vn 0.335285 -0.210611 -0.713963
vn 0.531519 -0.256035 0.564314
vn 0.531519 -0.256035 0.564314
vn 0.531519 -0.256035 0.564314
vn -0.132411 -0.045161 0.804329
vn -0.132411 -0.045161 0.804329
vn -0.132411 -0.045161 0.804329
vn -0.726446 -0.054523 0.368538
vn -0.726446 -0.054523 0.368538
vn -0.726446 -0.054523 0.368538
vn -0.156028 -0.131908 -0.790425
vn -0.156028 -0.131908 -0.790425
vn -0.156028 -0.131908 -0.790425
vn 0.438113 0.571256 -0.385020
vn 0.438113 0.571256 -0.385020
vn 0.438113 0.571256 -0.385020
vn 0.285664 0.614991 0.454642
vn 0.285664 0.614991 0.454642
vn 0.285664 0.614991 0.454642
vn -0.091524 0.604723 0.540786
vn -0.091524 0.604723 0.540786
vn -0.091524 0.604723 0.540786
vn -0.236342 0.770424 -0.130790
vn -0.236342 0.770424 -0.130790
vn -0.236342 0.770424 -0.130790
vn 0.104873 0.510484 -0.628430
vn 0.104873 0.510484 -0.628430
vn 0.104873 0.510484 -0.628430
vn 0.089477 0.766753 -0.265708
vn 0.089477 0.766753 -0.265708
vn 0.089477 0.766753 -0.265708
vn 0.037685 0.666822 -0.469515
vn 0.037685 0.666822 -0.469515
vn 0.037685 0.666822 -0.469515
vn -0.108013 0.658740 -0.470013
vn -0.108013 0.658740 -0.470013
vn -0.108013 0.658740 -0.470013
vn 0.001731 0.815796 0.031479
vn 0.001731 0.815796 0.031479
vn 0.001731 0.815796 0.031479
vn -0.143102 0.796923 0.104656
vn -0.143102 0.796923 0.104656
vn -0.143102 0.796923 0.104656
vn -0.205638 0.693692 0.378182
vn -0.205638 0.693692 0.378182
vn -0.205638 0.693692 0.378182
vn 0.088402 0.777625 0.232383
vn 0.088402 0.777625 0.232383
vn 0.088402 0.777625 0.232383
vn 0.036261 0.673404 0.460141
vn 0.036261 0.673404 0.460141
vn 0.036261 0.673404 0.460141
vn 0.107037 0.572916 0.571688
vn 0.107037 0.572916 0.571688
vn 0.107037 0.572916 0.571688
vn 0.238047 0.777941 0.068256
vn 0.238047 0.777941 0.068256
vn 0.238047 0.777941 0.068256
vn 0.341663 0.719269 0.180099
vn 0.341663 0.719269 0.180099
vn 0.341663 0.719269 0.180099
vn 0.487760 0.654431 -0.018099
vn 0.487760 0.654431 -0.018099
vn 0.487760 0.654431 -0.018099
vn 0.231779 0.743958 -0.243562
vn 0.231779 0.743958 -0.243562
vn 0.231779 0.743958 -0.243562
vn 0.308578 0.623428 -0.427357
vn 0.308578 0.623428 -0.427357
vn 0.308578 0.623428 -0.427357
vn 0.247181 0.487688 -0.606283
vn 0.247181 0.487688 -0.606283
vn 0.247181 0.487688 -0.606283
vn 0.036115 0.243666 -0.778357
vn 0.036115 0.243666 -0.778357
vn 0.036115 0.243666 -0.778357
vn -0.104979 0.162702 -0.793110
vn -0.104979 0.162702 -0.793110
vn -0.104979 0.162702 -0.793110
vn -0.212405 0.371680 -0.695165
vn -0.212405 0.371680 -0.695165
vn -0.212405 0.371680 -0.695165
vn -0.551917 0.595778 -0.083388
vn -0.551917 0.595778 -0.083388
vn -0.551917 0.595778 -0.083388
vn -0.626605 0.401475 0.335709
vn -0.626605 0.401475 0.335709
vn -0.626605 0.401475 0.335709
vn -0.413451 0.473239 0.521172
vn -0.413451 0.473239 0.521172
vn -0.413451 0.473239 0.521172
vn -0.161999 0.342134 0.723338
vn -0.161999 0.342134 0.723338
vn -0.161999 0.342134 0.723338
vn -0.089115 0.206227 0.784886
vn -0.089115 0.206227 0.784886
vn -0.089115 0.206227 0.784886
vn 0.036562 0.310326 0.754240
vn 0.036562 0.310326 0.754240
vn 0.036562 0.310326 0.754240
vn 0.364065 0.348689 0.642176
vn 0.364065 0.348689 0.642176
vn 0.364065 0.348689 0.642176
vn 0.590050 0.206580 0.525055
vn 0.590050 0.206580 0.525055
vn 0.590050 0.206580 0.525055
vn 0.706001 0.394273 0.112380
vn 0.706001 0.394273 0.112380
vn 0.706001 0.394273 0.112380
vn 0.511737 0.255680 -0.582468
vn 0.511737 0.255680 -0.582468
vn 0.511737 0.255680 -0.582468
vn 0.379786 0.085048 -0.717667
vn 0.379786 0.085048 -0.717667
vn 0.379786 0.085048 -0.717667
vn 0.272432 0.205811 -0.741579
vn 0.272432 0.205811 -0.741579
vn 0.272432 0.205811 -0.741579
vn -0.531519 0.256035 -0.564314
vn -0.531519 0.256035 -0.564314
vn -0.531519 0.256035 -0.564314
vn -0.590050 -0.206580 -0.525055
vn -0.590050 -0.206580 -0.525055
vn -0.590050 -0.206580 -0.525055
vn -0.706001 -0.394273 -0.112380
vn -0.706001 -0.394273 -0.112380
vn -0.706001 -0.394273 -0.112380
vn -0.335285 0.210611 0.713963
vn -0.335285 0.210611 0.713963
vn -0.335285 0.210611 0.713963
vn -0.379786 -0.085048 0.717667
vn -0.379786 -0.085048 0.717667
vn -0.379786 -0.085048 0.717667
vn -0.272432 -0.205811 0.741579
vn -0.272432 -0.205811 0.741579
vn -0.272432 -0.205811 0.741579
vn 0.156028 0.131908 0.790425
vn 0.156028 0.131908 0.790425
vn 0.156028 0.131908 0.790425
vn 0.104979 -0.162702 0.793110
vn 0.104979 -0.162702 0.793110
vn 0.104979 -0.162702 0.793110
vn 0.212405 -0.371680 0.695165
vn 0.212405 -0.371680 0.695165
vn 0.212405 -0.371680 0.695165
vn 0.726446 0.054523 -0.368538
vn 0.726446 0.054523 -0.368538
vn 0.726446 0.054523 -0.368538
vn 0.626605 -0.401475 -0.335709
vn 0.626605 -0.401475 -0.335709
vn 0.626605 -0.401475 -0.335709
vn 0.413451 -0.473239 -0.521172
vn 0.413451 -0.473239 -0.521172
vn 0.413451 -0.473239 -0.521172
vn 0.132411 0.045161 -0.804329
vn 0.132411 0.045161 -0.804329
vn 0.132411 0.045161 -0.804329
vn 0.089115 -0.206227 -0.784886
vn 0.089115 -0.206227 -0.784886
vn 0.089115 -0.206227 -0.784886
vn -0.036562 -0.310326 -0.754240
vn -0.036562 -0.310326 -0.754240
vn -0.036562 -0.310326 -0.754240
vn -0.285664 -0.614991 -0.454642
vn -0.285664 -0.614991 -0.454642
vn -0.285664 -0.614991 -0.454642
vn -0.341663 -0.719269 -0.180099
vn -0.341663 -0.719269 -0.180099
vn -0.341663 -0.719269 -0.180099
vn -0.487760 -0.654431 0.018099
vn -0.487760 -0.654431 0.018099
vn -0.487760 -0.654431 0.018099
vn -0.438113 -0.571256 0.385020
vn -0.438113 -0.571256 0.385020
vn -0.438113 -0.571256 0.385020
vn -0.308578 -0.623428 0.427357
vn -0.308578 -0.623428 0.427357
vn -0.308578 -0.623428 0.427357
vn -0.247181 -0.487688 0.606283
vn -0.247181 -0.487688 0.606283
vn -0.247181 -0.487688 0.606283
vn -0.104873 -0.510484 0.628430
vn -0.104873 -0.510484 0.628430
vn -0.104873 -0.510484 0.628430
vn -0.037685 -0.666822 0.469515
vn -0.037685 -0.666822 0.469515
vn -0.037685 -0.666822 0.469515
vn 0.108013 -0.658740 0.470013
vn 0.108013 -0.658740 0.470013
vn 0.108013 -0.658740 0.470013
vn -0.107037 -0.572916 -0.571688
vn -0.107037 -0.572916 -0.571688
vn -0.107037 -0.572916 -0.571688
vn -0.036261 -0.673404 -0.460141
vn -0.036261 -0.673404 -0.460141
vn -0.036261 -0.673404 -0.460141
vn -0.088402 -0.777625 -0.232383
vn -0.088402 -0.777625 -0.232383
vn -0.088402 -0.777625 -0.232383
vn 0.236342 -0.770424 0.130790
vn 0.236342 -0.770424 0.130790
vn 0.236342 -0.770424 0.130790
vn 0.143102 -0.796923 -0.104656
vn 0.143102 -0.796923 -0.104656
vn 0.143102 -0.796923 -0.104656
vn 0.205638 -0.693692 -0.378182
vn 0.205638 -0.693692 -0.378182
vn 0.205638 -0.693692 -0.378182
usemtl None
f 1/1/1 2/2/2 3/3/3
f 4/4/4 2/5/5 5/6/6
f 1/7/7 3/8/8 6/9/9
f 1/10/10 6/11/11 7/12/12
f 1/13/13 7/14/14 8/15/15
f 4/16/16 5/17/17 9/18/18
f 10/19/19 11/20/20 12/21/21
f 13/22/22 14/23/23 15/24/24
f 16/25/25 17/26/26 18/27/27
f 19/28/28 20/29/29 21/30/30
f 4/31/31 9/32/32 22/33/33
f 10/34/34 12/35/35 23/36/36
f 13/37/37 15/38/38 24/39/39
f 16/40/40 18/41/41 25/42/42
f 19/43/43 21/44/44 26/45/45
f 27/46/46 28/47/47 29/48/48
f 30/49/49 31/50/50 32/51/51
f 33/52/52 34/53/53 35/54/54
f 36/55/55 37/56/56 38/57/57
f 39/58/58 40/59/59 41/60/60
f 41/61/61 38/62/62 42/63/63
f 41/64/64 40/65/65 38/66/66
f 40/67/67 36/68/68 38/69/69
f 38/70/70 35/71/71 42/72/72
f 38/73/73 37/74/74 35/75/75
f 37/76/76 33/77/77 35/78/78
f 35/79/79 32/80/80 42/81/81
f 35/82/82 34/83/83 32/84/84
f 34/85/85 30/86/86 32/87/87
f 32/88/88 29/89/89 42/90/90
f 32/91/91 31/92/92 29/93/93
f 31/94/94 27/95/95 29/96/96
f 29/97/97 41/98/98 42/99/99
f 29/100/100 28/101/101 41/102/102
f 28/103/103 39/104/104 41/105/105
f 26/106/106 40/107/107 39/108/108
f 26/109/109 21/110/110 40/111/111
f 21/112/112 36/113/113 40/114/114
f 25/115/115 37/116/116 36/117/117
f 25/118/118 18/119/119 37/120/120
f 18/121/121 33/122/122 37/123/123
f 24/124/124 34/125/125 33/126/126
f 24/127/127 15/128/128 34/129/129
f 15/130/130 30/131/131 34/132/132
f 23/133/133 31/134/134 30/135/135
f 23/136/136 12/137/137 31/138/138
f 12/139/139 27/140/140 31/141/141
f 22/142/142 28/143/143 27/144/144
f 22/145/145 9/146/146 28/147/147
f 9/148/148 39/149/149 28/150/150
f 21/151/151 25/152/152 36/153/153
f 21/154/154 20/155/155 25/156/156
f 20/157/157 16/158/158 25/159/159
f 18/160/160 24/161/161 33/162/162
f 18/163/163 17/164/164 24/165/165
f 17/166/166 13/167/167 24/168/168
f 15/169/169 23/170/170 30/171/171
f 15/172/172 14/173/173 23/174/174
f 14/175/175 10/176/176 23/177/177
f 12/178/178 22/179/179 27/180/180
f 12/181/181 11/182/182 22/183/183
f 11/184/184 4/185/185 22/186/186
f 9/187/187 26/188/188 39/189/189
f 9/190/190 5/191/191 26/192/192
f 5/193/193 19/194/194 26/195/195
f 8/196/196 20/197/197 19/198/198
f 8/199/199 7/200/200 20/201/201
f 7/202/202 16/203/203 20/204/204
f 7/205/205 17/206/206 16/207/207
f 7/208/208 6/209/209 17/210/210
f 6/211/211 13/212/212 17/213/213
f 6/214/214 14/215/215 13/216/216
f 6/217/217 3/218/218 14/219/219
f 3/220/220 10/221/221 14/222/222
f 5/223/223 8/224/224 19/225/225
f 5/226/226 2/227/227 8/228/228
f 2/229/229 1/230/230 8/231/231
f 3/232/232 11/233/233 10/234/234
f 3/235/235 2/236/236 11/237/237
f 2/238/238 4/239/239 11/240/240
